# xmcd CD database file
#
# Track frame offsets:
#	187
#	6230
#	33332
#	56145
#	71077
#	86300
#	110797
#	125532
#	137312
#	145610
#	159800
#	178100
#	191375
#	205857
#	219515
#	232777
#	245802
#	261942
#
# Disc length: 3755 seconds
#
# Revision: 0
# Processed by: cddbd v1.5PL3 Copyright (c) Steve Scherf et al.
# Submitted via: CD2WAV32(EN) R3.19
#
DISCID=f90ea912
DTITLE=Sounds of Blackness - The Night Before Christmas...A Musical Fantasy
DYEAR=1900
DGENRE=
TTITLE0=Born In A Manger
TTITLE1=Soul Holiday
TTITLE2=It's Christmas Time
TTITLE3=Away In A Manger
TTITLE4=O Come All Ye Faithful
TTITLE5=O Holy Night
TTITLE6=Peace On Earth For Everyone
TTITLE7=Children Go
TTITLE8=Santa's comin' To Town
TTITLE9=Dance, Chilins, Dance
TTITLE10=Holiday Love
TTITLE11=Santa Won't You Come By
TTITLE12=The Jolly One's Here
TTITLE13=Dash Away All/Reindeer Revolt
TTITLE14=Give Us A Chance
TTITLE15=Santa Watch Yo' Step
TTITLE16=Why Don't You Believe In Me?
TTITLE17=Merry Christmas To The World
EXTD=
EXTT0=
EXTT1=
EXTT2=
EXTT3=
EXTT4=
EXTT5=
EXTT6=
EXTT7=
EXTT8=
EXTT9=
EXTT10=
EXTT11=
EXTT12=
EXTT13=
EXTT14=
EXTT15=
EXTT16=
EXTT17=
PLAYORDER=
